<svg width="42" height="42" viewBox="0 0 42 42" fill="none" xmlns="http://www.w3.org/2000/svg">
<path d="M21 42C32.598 42 42 32.598 42 21C42 9.40202 32.598 0 21 0C9.40202 0 0 9.40202 0 21C0 32.598 9.40202 42 21 42Z" fill="#314AF0"/>
<path d="M25.4188 41.5049C25.8215 41.4268 26.2219 41.337 26.6193 41.2354C27.2932 41.047 27.9573 40.8251 28.6091 40.5704C29.2616 40.3179 29.9012 40.0328 30.5253 39.7164C31.1496 39.3988 31.7576 39.0501 32.3471 38.6717C32.9358 38.2932 33.5053 37.8855 34.0533 37.4502C34.6023 37.0142 35.1291 36.5511 35.6318 36.0624C36.1337 35.575 36.6108 35.0627 37.0616 34.5277C37.5127 33.9921 37.9367 33.4343 38.3321 32.8564C38.7273 32.2795 39.0935 31.6832 39.4293 31.0697C39.7651 30.4553 40.07 29.8245 40.3428 29.1797C40.6159 28.5347 40.8565 27.8764 41.0638 27.2074C41.2413 26.6217 41.3931 26.0284 41.5188 25.4294L29.0413 12.9537C27.9876 11.8953 26.735 11.0557 25.3555 10.4833C23.9761 9.91084 22.4971 9.61683 21.0036 9.61817C19.5087 9.61654 18.0283 9.91038 16.6474 10.4828C15.2665 11.0552 14.0123 11.8949 12.9571 12.9537C11.8991 14.0093 11.0598 15.2632 10.4871 16.6436C9.91441 18.0241 9.61963 19.5039 9.61963 20.9984C9.61963 22.4929 9.91441 23.9728 10.4871 25.3532C11.0598 26.7336 11.8991 27.9876 12.9571 29.0432L25.4188 41.5049Z" fill="#2929BA"/>
<path d="M21.0016 9.61988C23.9101 9.61988 26.8186 10.7311 29.0446 12.9554C30.1025 14.011 30.9419 15.2649 31.5146 16.6453C32.0873 18.0258 32.382 19.5056 32.382 21.0001C32.382 22.4946 32.0873 23.9745 31.5146 25.3549C30.9419 26.7353 30.1025 27.9893 29.0446 29.0449C27.989 30.1028 26.7351 30.9422 25.3546 31.5148C23.9742 32.0875 22.4944 32.3823 20.9999 32.3823C19.5053 32.3823 18.0255 32.0875 16.6451 31.5148C15.2646 30.9422 14.0107 30.1028 12.9551 29.0449C11.8972 27.9893 11.0578 26.7353 10.4851 25.3549C9.91246 23.9745 9.61768 22.4946 9.61768 21.0001C9.61768 19.5056 9.91246 18.0258 10.4851 16.6453C11.0578 15.2649 11.8972 14.011 12.9551 12.9554C14.0104 11.8966 15.2645 11.0569 16.6454 10.4845C18.0263 9.91209 19.5068 9.61825 21.0016 9.61988ZM26.1816 17.4984C26.0159 17.5142 25.8582 17.5767 25.7266 17.6786L19.3321 22.4736L16.3694 19.5126C15.7271 18.8441 14.4619 20.1076 15.1321 20.7499L18.6321 24.2499C18.7838 24.3934 18.9805 24.4799 19.1888 24.4949C19.3971 24.5099 19.6041 24.4524 19.7749 24.3321L26.7749 19.0821C27.3629 18.6534 27.0006 17.5106 26.2726 17.5001C26.2429 17.4986 26.2131 17.4986 26.1834 17.5001L26.1816 17.4984Z" fill="white"/>
</svg>
